<svg id="Layer_1" data-name="Layer 1" xmlns="http://www.w3.org/2000/svg" viewBox="0 0 154.71 244.37"><defs><style>.cls-1{fill:#db4c7d;}.cls-2,.cls-4,.cls-5{fill:none;stroke-miterlimit:10;}.cls-2{stroke:#1d1d1b;stroke-width:0.48px;}.cls-3{fill:#c8c8b4;}.cls-4{stroke:#db4c7d;}.cls-4,.cls-5{stroke-width:0.5px;}.cls-5{stroke:#000;}.cls-6,.cls-7,.cls-8{isolation:isolate;}.cls-6{font-size:6px;fill:#fff;font-family:Avenir-Roman, Avenir;}.cls-8{font-size:10px;fill:#1d1d1b;font-family:Avenir-Black, Avenir;font-weight:800;}.cls-9{letter-spacing:-0.02em;}</style></defs><g id="Time_this_month" data-name="Time this month"><rect class="cls-1" x="44.02" y="206.44" width="22.2" height="8.5"/><polyline class="cls-2" points="44.12 210.14 44.12 215.14 66.32 215.14 66.32 210.14"/><polyline class="cls-2" points="66.22 215.14 88.42 215.14 88.42 210.14"/><polyline class="cls-2" points="88.12 215.14 111.02 215.14 111.02 210.14"/></g><g id="Time_this_quarter" data-name="Time this quarter"><rect class="cls-1" x="44.02" y="206.44" width="22.2" height="8.5"/><rect class="cls-1" x="66.22" y="206.44" width="22.2" height="8.5"/><polyline class="cls-2" points="44.12 210.14 44.12 215.14 66.32 215.14 66.32 210.14"/><polyline class="cls-2" points="66.22 215.14 88.42 215.14 88.42 210.14"/><polyline class="cls-2" points="88.12 215.14 111.02 215.14 111.02 210.14"/></g><g id="Time_next_quarter" data-name="Time next quarter"><rect class="cls-1" x="44.02" y="206.44" width="22.2" height="8.5"/><rect class="cls-1" x="66.22" y="206.44" width="22.2" height="8.5"/><rect class="cls-1" x="88.52" y="206.44" width="22.2" height="8.5"/><polyline class="cls-2" points="44.12 210.14 44.12 215.14 66.32 215.14 66.32 210.14"/><polyline class="cls-2" points="66.22 215.14 88.42 215.14 88.42 210.14"/><polyline class="cls-2" points="88.12 215.14 111.02 215.14 111.02 210.14"/></g><g id="Time_Unknown" data-name="Time Unknown"><polyline class="cls-2" points="44.12 210.14 44.12 215.14 66.32 215.14 66.32 210.14"/><polyline class="cls-2" points="66.22 215.14 88.42 215.14 88.42 210.14"/><polyline class="cls-2" points="88.12 215.14 111.02 215.14 111.02 210.14"/><path d="M128,231.44h-1v-1.2a1.45,1.45,0,0,1,.2-.7c.1-.2.3-.4.4-.6a2.65,2.65,0,0,1,.6-.5l.6-.6a2.09,2.09,0,0,0,.4-.6,1.88,1.88,0,0,0,.2-.8,1.71,1.71,0,0,0-1.7-1.7,1.59,1.59,0,0,0-1.2.4,2.38,2.38,0,0,0-.6,1.1l-1.1-.1c.1-.4.2-.7.3-1s.4-.5.6-.8a2.62,2.62,0,0,1,.9-.5,4.4,4.4,0,0,1,1-.2,4.25,4.25,0,0,1,1.1.2,2.62,2.62,0,0,1,.9.5,5.55,5.55,0,0,1,.6.8,3.59,3.59,0,0,1,.2,1.1,3,3,0,0,1-.2,1,4.35,4.35,0,0,1-.4.7l-.6.6c-.2.2-.4.3-.6.5a2.09,2.09,0,0,0-.4.6,2,2,0,0,0-.2.9Zm.4,2.1a.76.76,0,0,1-.2.5c-.1.2-.3.2-.6.2a1.42,1.42,0,0,1-.6-.2c-.1-.2-.2-.3-.2-.5a.76.76,0,0,1,.2-.5c.1-.2.3-.2.6-.2a1.42,1.42,0,0,1,.6.2A.76.76,0,0,1,128.41,233.54Z" transform="translate(-72.49 -22.4)"/></g><g id="Time_Speculative" data-name="Time Speculative"><polyline class="cls-2" points="44.12 210.14 44.12 215.14 66.32 215.14 66.32 210.14"/><polyline class="cls-2" points="66.22 215.14 88.42 215.14 88.42 210.14"/><polyline class="cls-2" points="88.12 215.14 111.02 215.14 111.02 210.14"/><path class="cls-1" d="M171.31,227.14a1.28,1.28,0,0,0-.7-.5,12.45,12.45,0,0,0-1.6,2.2c-1,1.6-1.8,3.1-3.6,3.1s-2.6-1.5-3.6-3.1-2.1-3.5-4.3-3.5-3.3,1.8-4.3,3.5-1.9,3.1-3.6,3.1-2.6-1.5-3.6-3.1-2.1-3.5-4.3-3.5-3.3,1.8-4.3,3.5-1.9,3.1-3.6,3.1-2.6-1.5-3.6-3.1-2.1-3.5-4.3-3.5-3.3,1.8-4.3,3.5c-.3.5-.7,1.1-1,1.6a1,1,0,0,0,.8.3l.9-1.5c1-1.6,1.9-3.1,3.6-3.1s2.6,1.5,3.6,3.1,2.1,3.5,4.3,3.5,3.3-1.8,4.3-3.5,1.9-3.1,3.6-3.1,2.6,1.5,3.6,3.1,2.1,3.5,4.3,3.5,3.3-1.8,4.3-3.5,1.9-3.1,3.6-3.1,2.6,1.5,3.6,3.1,2.1,3.5,4.3,3.5,3.3-1.8,4.3-3.5C170.31,228.44,170.81,227.74,171.31,227.14Z" transform="translate(-72.49 -22.4)"/></g><g id="Effort_S" data-name="Effort S"><path d="M150.88,258.37a2.28,2.28,0,0,0-1.9-1,2.2,2.2,0,0,0-.8.1,4.88,4.88,0,0,0-.7.3,1,1,0,0,0-.5.6,1.88,1.88,0,0,0-.2.8,1.16,1.16,0,0,0,.4,1,4.7,4.7,0,0,0,.9.6,5.64,5.64,0,0,0,1.2.4,4.33,4.33,0,0,1,1.2.5,2.36,2.36,0,0,1,.9.8,2,2,0,0,1,.4,1.4,2.38,2.38,0,0,1-.3,1.2,2.28,2.28,0,0,1-.8.9,8.79,8.79,0,0,0-1,.6,5,5,0,0,1-1.2.2,4.67,4.67,0,0,1-1.7-.3,3.6,3.6,0,0,1-1.4-1.1l.9-.7a2,2,0,0,0,.9.9,2.9,2.9,0,0,0,1.4.3,2.2,2.2,0,0,0,.8-.1,4.88,4.88,0,0,0,.7-.3c.2-.2.4-.3.5-.6a1.88,1.88,0,0,0,.2-.8,2.92,2.92,0,0,0-.2-.9,1.7,1.7,0,0,0-.6-.6,3,3,0,0,0-.8-.4l-.9-.3-.9-.3a2.18,2.18,0,0,1-.8-.5,5.55,5.55,0,0,1-.6-.8,3.59,3.59,0,0,1-.2-1.1,2.13,2.13,0,0,1,.3-1.2,2.55,2.55,0,0,1,1.7-1.4,5,5,0,0,1,1.2-.2,3.34,3.34,0,0,1,1.5.3,3.81,3.81,0,0,1,1.3.9Z" transform="translate(-72.49 -22.4)"/></g><g id="Effort_M" data-name="Effort M"><path d="M148.68,264.87l3.3-8.1h1.5v9.9h-1v-8.6h0l-3.6,8.6h-.5l-3.6-8.6h0v8.6h-1v-9.9h1.5Z" transform="translate(-72.49 -22.4)"/></g><g id="Effort_L" data-name="Effort L"><path d="M147.58,265.77h4.6v.9h-5.6v-9.9h1Z" transform="translate(-72.49 -22.4)"/></g><g id="Capability_new_relationship" data-name="Capability new relationship"><polygon class="cls-3" points="133.41 66.9 127.11 66.9 127.11 60.5 120.81 60.5 120.81 66.9 114.51 66.9 114.51 73.2 120.81 73.2 120.81 79.5 127.11 79.5 127.11 73.2 133.41 73.2 133.41 66.9"/></g><g id="Capability_new_team_better_understanding" data-name="Capability new team / better understanding"><path class="cls-3" d="M221.46,118.48,215,112a7.12,7.12,0,0,0-.8-9,7.07,7.07,0,1,0-1,10.8l6.5,6.5Z" transform="translate(-72.49 -22.4)"/></g><g id="Capability_new_skill" data-name="Capability new skill"><path class="cls-3" d="M227.2,142.85l-4.4-7.7a6.5,6.5,0,0,1-6.6,0l-4.4,7.7Z" transform="translate(-72.49 -22.4)"/><path class="cls-3" d="M222.7,135.15a7.1,7.1,0,0,0,1.4-1,6.58,6.58,0,1,0-9.3,0,7.1,7.1,0,0,0,1.4,1l3.3-5.7Z" transform="translate(-72.49 -22.4)"/></g><g id="Capability_new_tech" data-name="Capability new tech"><polygon class="cls-3" points="110.87 51.55 101.37 51.55 96.67 59.65 101.37 67.85 110.87 67.85 115.57 59.65 110.87 51.55"/></g><g id="Deliverables_100_" data-name="Deliverables 100%"><rect x="90.12" y="217.34" width="21.2" height="12.5"/><rect x="66.82" y="217.34" width="21.2" height="12.5"/><rect x="44.02" y="217.34" width="21.2" height="12.5"/></g><g id="Deliverables_80_" data-name="Deliverables 80%"><rect class="cls-3" x="90.12" y="217.34" width="21.2" height="12.5"/><rect x="66.82" y="217.34" width="21.2" height="12.5"/><rect x="44.02" y="217.34" width="21.2" height="12.5"/></g><g id="Deliverables_50_" data-name="Deliverables 50%"><rect class="cls-3" x="90.12" y="217.34" width="21.2" height="12.5"/><rect class="cls-3" x="66.82" y="217.34" width="21.2" height="12.5"/><rect x="44.02" y="217.34" width="21.2" height="12.5"/></g><g id="Target_outline" data-name="Target outline"><line class="cls-4" x1="80.41" y1="136.6" x2="100.91" y2="186.2"/><line class="cls-4" x1="53.01" y1="70.5" x2="73.51" y2="119.9"/><line class="cls-4" x1="68.71" y1="131.8" x2="19.21" y2="152.3"/><line class="cls-4" x1="134.81" y1="104.4" x2="85.41" y2="124.8"/><line class="cls-4" x1="73.51" y1="136.6" x2="53.01" y2="186.2"/><line class="cls-4" x1="100.91" y1="70.5" x2="80.51" y2="119.9"/><line class="cls-4" x1="68.71" y1="124.9" x2="19.21" y2="104.4"/><line class="cls-4" x1="134.81" y1="152.3" x2="85.41" y2="131.8"/><circle class="cls-5" cx="77.01" cy="128.3" r="24.5"/><circle class="cls-5" cx="77.01" cy="128.3" r="9"/><circle id="audience_circle" data-name="audience circle" class="cls-4" cx="76.31" cy="128.3" r="62.6"/></g><g id="Target_shape" data-name="Target shape"><rect class="cls-1" x="162.91" y="157.01" width="0.5" height="53.6" transform="translate(-130.41 54.03) rotate(-22.5)"/><rect class="cls-1" x="135.52" y="90.9" width="0.5" height="53.5" transform="translate(-107.18 38.52) rotate(-22.5)"/><rect class="cls-1" x="89.6" y="164.21" width="53.6" height="0.5" transform="translate(-126.5 34.56) rotate(-22.46)"/><rect class="cls-1" x="155.91" y="136.78" width="53.5" height="0.5" transform="translate(-111.03 57.96) rotate(-22.51)"/><rect class="cls-1" x="108.94" y="183.52" width="53.6" height="0.5" transform="translate(-158.48 216.42) rotate(-67.49)"/><rect class="cls-1" x="136.51" y="117.33" width="53.5" height="0.5" transform="translate(-80.27 201.12) rotate(-67.54)"/><rect class="cls-1" x="116.15" y="110.2" width="0.5" height="53.6" transform="translate(-127.21 169.71) rotate(-67.5)"/><rect class="cls-1" x="182.37" y="137.67" width="0.5" height="53.5" transform="translate(-111.66 247.82) rotate(-67.5)"/><path d="M149.5,160a9.2,9.2,0,1,1,9.2-9.2A9.18,9.18,0,0,1,149.5,160Zm0-18a8.7,8.7,0,1,0,8.7,8.7A8.71,8.71,0,0,0,149.5,142Z" transform="translate(-72.49 -22.4)"/><path class="cls-1" d="M148.8,213.6a62.85,62.85,0,1,1,58.6-40A63.09,63.09,0,0,1,148.8,213.6Zm0-125.2a62.33,62.33,0,1,0,58.1,85l.2.1-.2-.1a62.39,62.39,0,0,0-35.4-80.7A61.4,61.4,0,0,0,148.8,88.4Z" transform="translate(-72.49 -22.4)"/></g><g id="Stake_Marketing" data-name="Stake Marketing"><circle class="cls-1" cx="93.55" cy="166.37" r="15.1"/><text class="cls-6" transform="translate(87.71 168.47)">MKT</text></g><g id="Stake_Engineering" data-name="Stake Engineering"><circle class="cls-1" cx="116.27" cy="143.67" r="15.1"/><text id="ENG" class="cls-6" transform="translate(110.95 145.88)">ENG</text></g><g id="Stake_UXD" data-name="Stake UXD"><circle class="cls-1" cx="116.28" cy="111.56" r="15.1"/><text class="cls-6" transform="translate(109.71 113.23)">UXD</text></g><g id="Stake_Research" data-name="Stake Research"><circle class="cls-1" cx="93.58" cy="88.84" r="15.1"/><text class="cls-6" transform="translate(90.1 90.83)">DR</text></g><g id="Stake_Product" data-name="Stake Product"><circle class="cls-1" cx="61.46" cy="88.83" r="15.1"/><text class="cls-6" transform="translate(55.3 90.77)">PRO</text></g><g id="Stake_RD" data-name="Stake RD"><circle class="cls-1" cx="38.75" cy="111.53" r="15.1"/><text class="cls-6" transform="translate(31.12 113.33)">R&amp;D</text></g><g id="Stake_Audiences" data-name="Stake Audiences"><circle class="cls-1" cx="38.74" cy="143.64" r="15.1"/><text id="AUD" class="cls-6" transform="translate(31.59 145.3)">AUD</text></g><g id="Stake_Editorial" data-name="Stake Editorial"><circle class="cls-1" cx="61.44" cy="166.36" r="15.1"/><text class="cls-6" transform="translate(57.48 168.59)">ED.</text></g><g id="Goal"><g class="cls-7"><text class="cls-8" transform="translate(90.76 8.54)">Being mo<tspan class="cls-9" x="44.62" y="0">r</tspan><tspan x="48.51" y="0">e </tspan></text><text class="cls-8" transform="translate(90.76 19.04)">personally </text><text class="cls-8" transform="translate(90.76 29.54)"><tspan class="cls-9">r</tspan><tspan x="3.89" y="0">elevant</tspan></text></g></g><g id="Target_100_" data-name="Target 100%"><circle cx="77.01" cy="128.3" r="8.9"/></g><g id="Target_80_" data-name="Target 80%"><circle cx="85.51" cy="137.1" r="8.9"/></g><g id="Target_50_" data-name="Target 50%"><circle cx="94.41" cy="145.6" r="8.9"/></g><g id="Exploratory"><polygon class="cls-1" points="24.71 66.9 24.31 66.7 49.61 19.8 65.41 44.5 65.01 44.8 49.61 20.8 24.71 66.9"/><path d="M126.1,70.4a2.2,2.2,0,1,0-2.2-2.2A2.1,2.1,0,0,0,126.1,70.4Z" transform="translate(-72.49 -22.4)"/><path d="M124.9,91.3l.4,1.6c.8-.3,1.7-.6,2.5-.9l-.8-4.4,4.2-7.2.7.2.6-1.3-4.7-3.2c-.5-1.6-1.1-3.2-1.6-4.7l-.1-.1a3,3,0,0,0-1.9-1c-1.7,0-2.7,1.2-3.5,3l1.3-3.6a2.54,2.54,0,0,0-1.8-.8c-1,2.1-1.8,4.2-2.8,6.3.3.8.9,1.1,1.9.8.2-.1.5-.7.2-.1a17.36,17.36,0,0,0-.7,2.9,3.17,3.17,0,0,0,.6,2L115.7,93l.7.6.9.7,4.8-10,2,2.4.5,2.5-2.5,4.5.7.1a4.88,4.88,0,0,1,.7-.3Zm-1-11.7a9.59,9.59,0,0,1,1.5-2.8c.2.3.4.7.7,1.1V78l4,2-3.4,5.7-.6-1.3Z" transform="translate(-72.49 -22.4)"/></g><g id="Evaluative"><g id="Stake_R_2" data-name="Stake R 2"><polygon class="cls-1" points="38.47 60.45 37.77 60.45 37.77 19.79 61.98 19.79 61.98 33.58 61.28 33.58 61.28 20.48 38.47 20.48 38.47 60.45"/><path d="M121.61,85.69h12.51V73.18H121.61Zm2.32-9.12L125,75.51l2.87,2.87,2.87-2.87,1.06,1.06-2.87,2.87,2.87,2.87-1.06,1.06-2.87-2.87L125,83.37l-1.06-1.06,2.87-2.87Z" transform="translate(-72.49 -22.4)"/><rect x="127.11" y="78.7" width="1.5" height="1.5" transform="translate(-91.22 91.28) rotate(-45)"/><path d="M121.61,59.36V71.87h12.51V59.36ZM125,69.55l-1.06-1.06,6.8-6.8,1.06,1.06Z" transform="translate(-72.49 -22.4)"/></g></g><g id="Foundational"><g id="Stake_R_2-2" data-name="Stake R 2"><path d="M136.64,75.83h0L132,73.08v-6a.24.24,0,0,0,0-.12h0l-.06-.06h0l-4.82-2.82a.24.24,0,0,0-.23,0l-9.46,5.6h0l-.06,0h0a.2.2,0,0,0,0,.11v.32l-4.67,2.79h0l-.06,0h0a.2.2,0,0,0,0,.11v6.08a.24.24,0,0,0,.11.19l9.41,5.7h.11a.2.2,0,0,0,.11,0h0L127,82.32l4.63,2.75h0a.22.22,0,0,0,.16,0,.2.2,0,0,0,.11,0h0l4.74-2.81a.21.21,0,0,0,.11-.19V75.94a.2.2,0,0,0,0-.11Zm-14.18,2.53V72.8l9-5.36V73ZM127,64.5l4.3,2.57L127,69.62l-4.74,2.81-4.3-2.55Zm-5,8.3v5.56l-4.22-2.54V70.26Z" transform="translate(-72.49 -22.4)"/><polygon class="cls-1" points="32.97 60.34 32.27 60.34 32.27 19.68 67.47 19.68 67.47 33.47 66.77 33.47 66.77 20.38 32.97 20.38 32.97 60.34"/></g></g><g id="Generative"><g id="Stake_R_2-3" data-name="Stake R 2"><path d="M132.49,58.9a4.42,4.42,0,0,0-4.41,4.41h0A4.33,4.33,0,0,0,129,66l-1.66,1.66a3.72,3.72,0,0,0-4.6,0l-1.94-1.91a3.14,3.14,0,1,0-4.42.46,3.16,3.16,0,0,0,2,.7h.22a2.49,2.49,0,0,0,1.5-.44l1.93,2a3.26,3.26,0,0,0-.24.4l-.08.14c0,.09-.09.17-.13.26a3.8,3.8,0,0,0,2.1,5,3.52,3.52,0,0,0,.9.24v2.4a4.41,4.41,0,1,0,1.06,0V74.35a3.58,3.58,0,0,0,1.31-.45.49.49,0,0,0,.28-.13,2.69,2.69,0,0,0,.51-.44h0a.27.27,0,0,1,.07-.08,3.73,3.73,0,0,0,.29-4.81l1.66-1.64a4.42,4.42,0,1,0,5.45-7A4.5,4.5,0,0,0,132.49,58.9Z" transform="translate(-72.49 -22.4)"/><path d="M121.25,74.35a1.59,1.59,0,0,0-1.58-1.6h0a1.59,1.59,0,0,0-.43.06h0a1.55,1.55,0,0,0-1.26.79,1.57,1.57,0,0,0,0,1.49,1.55,1.55,0,0,0,1.26.79h0a1.59,1.59,0,0,0,2-1.53Z" transform="translate(-72.49 -22.4)"/><path class="cls-1" d="M102.66,71.83a22.27,22.27,0,0,1,42.22-14.16l-.66.22a21.57,21.57,0,0,0-40.9,13.72Z" transform="translate(-72.49 -22.4)"/></g></g><g id="Practise"><g id="Stake_R_2-4" data-name="Stake R 2"><rect x="34.73" y="51.84" width="7.55" height="14.09"/><rect x="44.72" y="45.8" width="7.55" height="20.14"/><rect x="54.81" y="37.84" width="7.53" height="28.09"/><path class="cls-1" d="M106.79,64.49l-.08-.69A32.91,32.91,0,0,0,134.5,40.26l.67.2A33.6,33.6,0,0,1,106.79,64.49Z" transform="translate(-72.49 -22.4)"/></g></g><g id="UNDER_35" data-name="UNDER 35"><path class="cls-1" d="M94,180.78a14.17,14.17,0,1,1-7.71-27.07,64.88,64.88,0,0,0,1.08,8.8A64.23,64.23,0,0,0,94,180.78Z" transform="translate(-72.49 -22.4)"/><text class="cls-6" transform="translate(4.36 148.75)">&lt;35</text></g><g id="OVER_35" data-name="OVER 35"><path class="cls-1" d="M108.67,198.73a14.16,14.16,0,0,1-24.14-10.06,14.44,14.44,0,0,1,.18-2.29,14.19,14.19,0,0,1,6.73-9.88,63,63,0,0,0,17.23,22.23Z" transform="translate(-72.49 -22.4)"/><text class="cls-6" transform="translate(15.99 172.64)">&gt;35</text></g><g id="Under_17" data-name="Under 17"><path class="cls-1" d="M86.78,159.12a14.79,14.79,0,0,1-2.28-.18,14.17,14.17,0,1,1,4.33-28l.38.07a62.61,62.61,0,0,0-3,19.26A63.9,63.9,0,0,0,86.78,159.12Z" transform="translate(-72.49 -22.4)"/><text class="cls-6" transform="translate(2.6 122.76)">&lt;17</text></g></svg>